<svg width="130" height="114" viewBox="0 0 130 114" fill="none" xmlns="http://www.w3.org/2000/svg">
<rect width="130" height="114" rx="10" fill="black"/>
<path d="M23.2812 46.0469C23.2812 45.6406 23.2188 45.276 23.0938 44.9531C22.9792 44.6198 22.7604 44.3177 22.4375 44.0469C22.1146 43.7656 21.6615 43.4896 21.0781 43.2188C20.4948 42.9479 19.7396 42.6667 18.8125 42.375C17.7812 42.0417 16.8021 41.6667 15.875 41.25C14.9583 40.8333 14.1458 40.349 13.4375 39.7969C12.7396 39.2344 12.1875 38.5833 11.7812 37.8438C11.3854 37.1042 11.1875 36.2448 11.1875 35.2656C11.1875 34.3177 11.3958 33.4583 11.8125 32.6875C12.2292 31.9062 12.8125 31.2396 13.5625 30.6875C14.3125 30.125 15.1979 29.6927 16.2188 29.3906C17.25 29.0885 18.3802 28.9375 19.6094 28.9375C21.2865 28.9375 22.75 29.2396 24 29.8438C25.25 30.4479 26.2188 31.276 26.9062 32.3281C27.6042 33.3802 27.9531 34.5833 27.9531 35.9375H23.2969C23.2969 35.2708 23.1562 34.6875 22.875 34.1875C22.6042 33.6771 22.1875 33.276 21.625 32.9844C21.0729 32.6927 20.375 32.5469 19.5312 32.5469C18.7188 32.5469 18.0417 32.6719 17.5 32.9219C16.9583 33.1615 16.5521 33.4896 16.2812 33.9062C16.0104 34.3125 15.875 34.7708 15.875 35.2812C15.875 35.6667 15.9688 36.0156 16.1562 36.3281C16.3542 36.6406 16.6458 36.9323 17.0312 37.2031C17.4167 37.474 17.8906 37.7292 18.4531 37.9688C19.0156 38.2083 19.6667 38.4427 20.4062 38.6719C21.6458 39.0469 22.7344 39.4688 23.6719 39.9375C24.6198 40.4062 25.4115 40.9323 26.0469 41.5156C26.6823 42.099 27.1615 42.7604 27.4844 43.5C27.8073 44.2396 27.9688 45.0781 27.9688 46.0156C27.9688 47.0052 27.776 47.8906 27.3906 48.6719C27.0052 49.4531 26.4479 50.1146 25.7188 50.6562C24.9896 51.1979 24.1198 51.6094 23.1094 51.8906C22.099 52.1719 20.9688 52.3125 19.7188 52.3125C18.5938 52.3125 17.4844 52.1667 16.3906 51.875C15.2969 51.5729 14.3021 51.1198 13.4062 50.5156C12.5208 49.9115 11.8125 49.1406 11.2812 48.2031C10.75 47.2656 10.4844 46.1562 10.4844 44.875H15.1875C15.1875 45.5833 15.2969 46.1823 15.5156 46.6719C15.7344 47.1615 16.0417 47.5573 16.4375 47.8594C16.8438 48.1615 17.3229 48.3802 17.875 48.5156C18.4375 48.651 19.0521 48.7188 19.7188 48.7188C20.5312 48.7188 21.1979 48.6042 21.7188 48.375C22.25 48.1458 22.6406 47.8281 22.8906 47.4219C23.151 47.0156 23.2812 46.5573 23.2812 46.0469ZM49.8438 40.0938V41.1719C49.8438 42.901 49.6094 44.4531 49.1406 45.8281C48.6719 47.2031 48.0104 48.375 47.1562 49.3438C46.3021 50.3021 45.2812 51.0365 44.0938 51.5469C42.9167 52.0573 41.6094 52.3125 40.1719 52.3125C38.7448 52.3125 37.4375 52.0573 36.25 51.5469C35.0729 51.0365 34.0521 50.3021 33.1875 49.3438C32.3229 48.375 31.651 47.2031 31.1719 45.8281C30.7031 44.4531 30.4688 42.901 30.4688 41.1719V40.0938C30.4688 38.3542 30.7031 36.8021 31.1719 35.4375C31.6406 34.0625 32.3021 32.8906 33.1562 31.9219C34.0208 30.9531 35.0417 30.2135 36.2188 29.7031C37.4062 29.1927 38.7135 28.9375 40.1406 28.9375C41.5781 28.9375 42.8854 29.1927 44.0625 29.7031C45.25 30.2135 46.2708 30.9531 47.125 31.9219C47.9896 32.8906 48.6562 34.0625 49.125 35.4375C49.6042 36.8021 49.8438 38.3542 49.8438 40.0938ZM45.1094 41.1719V40.0625C45.1094 38.8542 45 37.7917 44.7812 36.875C44.5625 35.9583 44.2396 35.1875 43.8125 34.5625C43.3854 33.9375 42.8646 33.4688 42.25 33.1562C41.6354 32.8333 40.9323 32.6719 40.1406 32.6719C39.349 32.6719 38.6458 32.8333 38.0312 33.1562C37.4271 33.4688 36.9115 33.9375 36.4844 34.5625C36.0677 35.1875 35.75 35.9583 35.5312 36.875C35.3125 37.7917 35.2031 38.8542 35.2031 40.0625V41.1719C35.2031 42.3698 35.3125 43.4323 35.5312 44.3594C35.75 45.276 36.0729 46.0521 36.5 46.6875C36.9271 47.3125 37.4479 47.7865 38.0625 48.1094C38.6771 48.4323 39.3802 48.5938 40.1719 48.5938C40.9635 48.5938 41.6667 48.4323 42.2812 48.1094C42.8958 47.7865 43.4115 47.3125 43.8281 46.6875C44.2448 46.0521 44.5625 45.276 44.7812 44.3594C45 43.4323 45.1094 42.3698 45.1094 41.1719ZM66.4062 44.4531H71.0781C70.9844 45.9844 70.5625 47.3438 69.8125 48.5312C69.0729 49.7188 68.0365 50.6458 66.7031 51.3125C65.3802 51.9792 63.7865 52.3125 61.9219 52.3125C60.4635 52.3125 59.1562 52.0625 58 51.5625C56.8438 51.0521 55.8542 50.3229 55.0312 49.375C54.2188 48.4271 53.599 47.2812 53.1719 45.9375C52.7448 44.5938 52.5312 43.0885 52.5312 41.4219V39.8438C52.5312 38.1771 52.75 36.6719 53.1875 35.3281C53.6354 33.974 54.2708 32.8229 55.0938 31.875C55.9271 30.9271 56.9219 30.1979 58.0781 29.6875C59.2344 29.1771 60.526 28.9219 61.9531 28.9219C63.849 28.9219 65.4479 29.2656 66.75 29.9531C68.0625 30.6406 69.0781 31.5885 69.7969 32.7969C70.526 34.0052 70.9635 35.3802 71.1094 36.9219H66.4219C66.3698 36.0052 66.1875 35.2292 65.875 34.5938C65.5625 33.9479 65.0885 33.4635 64.4531 33.1406C63.8281 32.8073 62.9948 32.6406 61.9531 32.6406C61.1719 32.6406 60.4896 32.7865 59.9062 33.0781C59.3229 33.3698 58.8333 33.8125 58.4375 34.4062C58.0417 35 57.7448 35.75 57.5469 36.6562C57.3594 37.5521 57.2656 38.6042 57.2656 39.8125V41.4219C57.2656 42.599 57.3542 43.6354 57.5312 44.5312C57.7083 45.4167 57.9792 46.1667 58.3438 46.7812C58.7188 47.3854 59.1979 47.8438 59.7812 48.1562C60.375 48.4583 61.0885 48.6094 61.9219 48.6094C62.901 48.6094 63.7083 48.4531 64.3438 48.1406C64.9792 47.8281 65.4635 47.3646 65.7969 46.75C66.1406 46.1354 66.3438 45.3698 66.4062 44.4531ZM79.1406 29.25V52H74.4688V29.25H79.1406ZM93.0625 33.1406L86.875 52H81.8906L90.3438 29.25H93.5156L93.0625 33.1406ZM98.2031 52L92 33.1406L91.5 29.25H94.7031L103.203 52H98.2031ZM97.9219 43.5312V47.2031H85.9062V43.5312H97.9219ZM119.938 48.3438V52H108.484V48.3438H119.938ZM110 29.25V52H105.312V29.25H110ZM38.5469 76.4531H43.2188C43.125 77.9844 42.7031 79.3438 41.9531 80.5312C41.2135 81.7188 40.1771 82.6458 38.8438 83.3125C37.5208 83.9792 35.9271 84.3125 34.0625 84.3125C32.6042 84.3125 31.2969 84.0625 30.1406 83.5625C28.9844 83.0521 27.9948 82.3229 27.1719 81.375C26.3594 80.4271 25.7396 79.2812 25.3125 77.9375C24.8854 76.5938 24.6719 75.0885 24.6719 73.4219V71.8438C24.6719 70.1771 24.8906 68.6719 25.3281 67.3281C25.776 65.974 26.4115 64.8229 27.2344 63.875C28.0677 62.9271 29.0625 62.1979 30.2188 61.6875C31.375 61.1771 32.6667 60.9219 34.0938 60.9219C35.9896 60.9219 37.5885 61.2656 38.8906 61.9531C40.2031 62.6406 41.2188 63.5885 41.9375 64.7969C42.6667 66.0052 43.1042 67.3802 43.25 68.9219H38.5625C38.5104 68.0052 38.3281 67.2292 38.0156 66.5938C37.7031 65.9479 37.2292 65.4635 36.5938 65.1406C35.9688 64.8073 35.1354 64.6406 34.0938 64.6406C33.3125 64.6406 32.6302 64.7865 32.0469 65.0781C31.4635 65.3698 30.974 65.8125 30.5781 66.4062C30.1823 67 29.8854 67.75 29.6875 68.6562C29.5 69.5521 29.4062 70.6042 29.4062 71.8125V73.4219C29.4062 74.599 29.4948 75.6354 29.6719 76.5312C29.849 77.4167 30.1198 78.1667 30.4844 78.7812C30.8594 79.3854 31.3385 79.8438 31.9219 80.1562C32.5156 80.4583 33.2292 80.6094 34.0625 80.6094C35.0417 80.6094 35.849 80.4531 36.4844 80.1406C37.1198 79.8281 37.6042 79.3646 37.9375 78.75C38.2812 78.1354 38.4844 77.3698 38.5469 76.4531ZM46.2969 61.25H54.7812C56.5208 61.25 58.0156 61.5104 59.2656 62.0312C60.526 62.5521 61.4948 63.3229 62.1719 64.3438C62.849 65.3646 63.1875 66.6198 63.1875 68.1094C63.1875 69.3281 62.9792 70.375 62.5625 71.25C62.1562 72.1146 61.5781 72.8385 60.8281 73.4219C60.0885 73.9948 59.2188 74.4531 58.2188 74.7969L56.7344 75.5781H49.3594L49.3281 71.9219H54.8125C55.6354 71.9219 56.3177 71.776 56.8594 71.4844C57.401 71.1927 57.8073 70.7865 58.0781 70.2656C58.3594 69.7448 58.5 69.1406 58.5 68.4531C58.5 67.724 58.3646 67.0938 58.0938 66.5625C57.8229 66.0312 57.4115 65.625 56.8594 65.3438C56.3073 65.0625 55.6146 64.9219 54.7812 64.9219H50.9844V84H46.2969V61.25ZM59.0156 84L53.8281 73.8594L58.7812 73.8281L64.0312 83.7812V84H59.0156ZM79.3594 61.25H84.0312V76.2812C84.0312 78.0312 83.6562 79.5052 82.9062 80.7031C82.1667 81.901 81.1406 82.8021 79.8281 83.4062C78.526 84.0104 77.026 84.3125 75.3281 84.3125C73.6302 84.3125 72.1198 84.0104 70.7969 83.4062C69.4844 82.8021 68.4531 81.901 67.7031 80.7031C66.9635 79.5052 66.5938 78.0312 66.5938 76.2812V61.25H71.2812V76.2812C71.2812 77.3021 71.4427 78.1354 71.7656 78.7812C72.0885 79.4271 72.5521 79.901 73.1562 80.2031C73.7708 80.5052 74.4948 80.6562 75.3281 80.6562C76.1823 80.6562 76.9062 80.5052 77.5 80.2031C78.1042 79.901 78.5625 79.4271 78.875 78.7812C79.1979 78.1354 79.3594 77.3021 79.3594 76.2812V61.25ZM94.875 84H89.9219L89.9531 80.3438H94.875C96.1042 80.3438 97.1406 80.0677 97.9844 79.5156C98.8281 78.9531 99.4635 78.1354 99.8906 77.0625C100.328 75.9896 100.547 74.6927 100.547 73.1719V72.0625C100.547 70.8958 100.422 69.8698 100.172 68.9844C99.9323 68.099 99.5729 67.3542 99.0938 66.75C98.6146 66.1458 98.026 65.6927 97.3281 65.3906C96.6302 65.0781 95.8281 64.9219 94.9219 64.9219H89.8281V61.25H94.9219C96.4427 61.25 97.8333 61.5104 99.0938 62.0312C100.365 62.5417 101.464 63.276 102.391 64.2344C103.318 65.1927 104.031 66.3385 104.531 67.6719C105.042 68.9948 105.297 70.4688 105.297 72.0938V73.1719C105.297 74.7865 105.042 76.2604 104.531 77.5938C104.031 78.9271 103.318 80.0729 102.391 81.0312C101.474 81.9792 100.375 82.7135 99.0938 83.2344C97.8229 83.7448 96.4167 84 94.875 84ZM92.5781 61.25V84H87.8906V61.25H92.5781Z" fill="white"/>
</svg>
