<svg width="130" height="114" viewBox="0 0 130 114" fill="none" xmlns="http://www.w3.org/2000/svg">
<rect width="130" height="114" rx="10" fill="#00875F"/>
<path d="M31.4336 61.5664H37.2734C37.1562 63.4805 36.6289 65.1797 35.6914 66.6641C34.7669 68.1484 33.4714 69.3073 31.8047 70.1406C30.151 70.974 28.1589 71.3906 25.8281 71.3906C24.0052 71.3906 22.3711 71.0781 20.9258 70.4531C19.4805 69.8151 18.2435 68.9036 17.2148 67.7188C16.1992 66.5339 15.4245 65.1016 14.8906 63.4219C14.3568 61.7422 14.0898 59.8607 14.0898 57.7773V55.8047C14.0898 53.7214 14.3633 51.8398 14.9102 50.1602C15.4701 48.4674 16.2643 47.0286 17.293 45.8438C18.3346 44.6589 19.5781 43.7474 21.0234 43.1094C22.4688 42.4714 24.0833 42.1523 25.8672 42.1523C28.237 42.1523 30.2357 42.582 31.8633 43.4414C33.5039 44.3008 34.7734 45.4857 35.6719 46.9961C36.5833 48.5065 37.1302 50.2253 37.3125 52.1523H31.4531C31.388 51.0065 31.1602 50.0365 30.7695 49.2422C30.3789 48.4349 29.7865 47.8294 28.9922 47.4258C28.2109 47.0091 27.1693 46.8008 25.8672 46.8008C24.8906 46.8008 24.0378 46.9831 23.3086 47.3477C22.5794 47.7122 21.9674 48.2656 21.4727 49.0078C20.9779 49.75 20.6068 50.6875 20.3594 51.8203C20.125 52.9401 20.0078 54.2552 20.0078 55.7656V57.7773C20.0078 59.2487 20.1185 60.5443 20.3398 61.6641C20.5612 62.7708 20.8997 63.7083 21.3555 64.4766C21.8242 65.2318 22.4232 65.8047 23.1523 66.1953C23.8945 66.5729 24.7865 66.7617 25.8281 66.7617C27.0521 66.7617 28.0612 66.5664 28.8555 66.1758C29.6497 65.7852 30.2552 65.2057 30.6719 64.4375C31.1016 63.6693 31.3555 62.7122 31.4336 61.5664ZM41.1211 42.5625H51.7266C53.901 42.5625 55.7695 42.888 57.332 43.5391C58.9076 44.1901 60.1185 45.1536 60.9648 46.4297C61.8112 47.7057 62.2344 49.2747 62.2344 51.1367C62.2344 52.6602 61.974 53.9688 61.4531 55.0625C60.9453 56.1432 60.2227 57.0482 59.2852 57.7773C58.3607 58.4935 57.2734 59.0664 56.0234 59.4961L54.168 60.4727H44.9492L44.9102 55.9023H51.7656C52.7943 55.9023 53.6471 55.7201 54.3242 55.3555C55.0013 54.9909 55.5091 54.4831 55.8477 53.832C56.1992 53.181 56.375 52.4258 56.375 51.5664C56.375 50.6549 56.2057 49.8672 55.8672 49.2031C55.5286 48.5391 55.0143 48.0312 54.3242 47.6797C53.6341 47.3281 52.7682 47.1523 51.7266 47.1523H46.9805V71H41.1211V42.5625ZM57.0195 71L50.5352 58.3242L56.7266 58.2852L63.2891 70.7266V71H57.0195ZM82.4492 42.5625H88.2891V61.3516C88.2891 63.5391 87.8203 65.3815 86.8828 66.8789C85.9583 68.3763 84.6758 69.5026 83.0352 70.2578C81.4076 71.013 79.5326 71.3906 77.4102 71.3906C75.2878 71.3906 73.3997 71.013 71.7461 70.2578C70.1055 69.5026 68.8164 68.3763 67.8789 66.8789C66.9544 65.3815 66.4922 63.5391 66.4922 61.3516V42.5625H72.3516V61.3516C72.3516 62.6276 72.5534 63.6693 72.957 64.4766C73.3607 65.2839 73.9401 65.8763 74.6953 66.2539C75.4635 66.6315 76.3685 66.8203 77.4102 66.8203C78.4779 66.8203 79.3828 66.6315 80.125 66.2539C80.8802 65.8763 81.4531 65.2839 81.8438 64.4766C82.2474 63.6693 82.4492 62.6276 82.4492 61.3516V42.5625ZM101.844 71H95.6523L95.6914 66.4297H101.844C103.38 66.4297 104.676 66.0846 105.73 65.3945C106.785 64.6914 107.579 63.6693 108.113 62.3281C108.66 60.987 108.934 59.3659 108.934 57.4648V56.0781C108.934 54.6198 108.777 53.3372 108.465 52.2305C108.165 51.1237 107.716 50.1927 107.117 49.4375C106.518 48.6823 105.783 48.1159 104.91 47.7383C104.038 47.3477 103.035 47.1523 101.902 47.1523H95.5352V42.5625H101.902C103.803 42.5625 105.542 42.888 107.117 43.5391C108.706 44.1771 110.079 45.0951 111.238 46.293C112.397 47.4909 113.289 48.9232 113.914 50.5898C114.552 52.2435 114.871 54.0859 114.871 56.1172V57.4648C114.871 59.4831 114.552 61.3255 113.914 62.9922C113.289 64.6589 112.397 66.0911 111.238 67.2891C110.092 68.474 108.719 69.3919 107.117 70.043C105.529 70.681 103.771 71 101.844 71ZM98.9727 42.5625V71H93.1133V42.5625H98.9727Z" fill="white"/>
</svg>
